<svg xmlns="http://www.w3.org/2000/svg" viewBox="0 0 1600 700" role="img" aria-labelledby="title desc"><title id="title">Método, metodología, marco, práctica, técnica y herramienta</title><desc id="desc">Dos planos distinguen las funciones de orientación y ejecución de seis conceptos metodológicos relacionados.</desc><defs><marker id="arrow" markerWidth="10" markerHeight="10" refX="7" refY="3" orient="auto"><path d="M0,0 L0,6 L8,3 z" fill="#555"/></marker></defs><rect width="1600" height="700" fill="#FAFAF8"/><path d="M55 105 H1545" stroke="#202020" stroke-width="3"/><text x="55" y="68" text-anchor="start" font-family="Avenir" font-size="24" font-weight="700" fill="#202020"><tspan x="55" y="68">N01 · ARQUITECTURA METODOLÓGICA</tspan></text><text x="55" y="155" text-anchor="start" font-family="Avenir" font-size="38" font-weight="500" fill="#202020"><tspan x="55" y="155">Seis funciones que no conviene confundir</tspan></text><text x="90" y="214" text-anchor="start" font-family="Avenir" font-size="18" font-weight="700" fill="#202020"><tspan x="90" y="214">ORIENTACIÓN</tspan></text><text x="90" y="454" text-anchor="start" font-family="Avenir" font-size="18" font-weight="700" fill="#202020"><tspan x="90" y="454">EJECUCIÓN</tspan></text><path d="M430 323 H555" stroke="#555" stroke-width="3" marker-end="url(#arrow)"/><path d="M895 323 H1020" stroke="#555" stroke-width="3" marker-end="url(#arrow)"/><path d="M430 563 H555" stroke="#555" stroke-width="3" marker-end="url(#arrow)"/><path d="M895 563 H1020" stroke="#555" stroke-width="3" marker-end="url(#arrow)"/><path d="M1265 408 C1265 385 1265 372 1265 360" fill="none" stroke="#777" stroke-width="2.5" stroke-dasharray="8 8" marker-end="url(#arrow)"/><text x="1300" y="390" text-anchor="start" font-family="Avenir" font-size="16" font-weight="500" fill="#202020"><tspan x="1300" y="390">se apoya en</tspan></text><rect x="90" y="238" width="375" height="170" rx="3" fill="#FFFFFF" stroke="#555" stroke-width="2"/><text x="118" y="273" text-anchor="start" font-family="Avenir" font-size="20" font-weight="700" fill="#202020"><tspan x="118" y="273">01</tspan></text><text x="118" y="320" text-anchor="start" font-family="Avenir" font-size="31" font-weight="700" fill="#202020"><tspan x="118" y="320">MARCO</tspan></text><text x="118" y="360" text-anchor="start" font-family="Avenir" font-size="24" font-weight="500" fill="#202020"><tspan x="118" y="360">Ordena conceptos, roles y</tspan><tspan x="118" y="389">dimensiones</tspan></text><circle cx="437" cy="266" r="8" fill="#CFFF00" stroke="#333" stroke-width="1.5"/><rect x="555" y="238" width="375" height="170" rx="3" fill="#E4E6E5" stroke="#555" stroke-width="2"/><text x="583" y="273" text-anchor="start" font-family="Avenir" font-size="20" font-weight="700" fill="#202020"><tspan x="583" y="273">02</tspan></text><text x="583" y="320" text-anchor="start" font-family="Avenir" font-size="31" font-weight="700" fill="#202020"><tspan x="583" y="320">METODOLOGÍA</tspan></text><text x="583" y="360" text-anchor="start" font-family="Avenir" font-size="24" font-weight="500" fill="#202020"><tspan x="583" y="360">Justifica cómo se eligen y</tspan><tspan x="583" y="389">evalúan métodos</tspan></text><circle cx="902" cy="266" r="8" fill="#CFFF00" stroke="#333" stroke-width="1.5"/><rect x="1020" y="238" width="375" height="170" rx="3" fill="#FFFFFF" stroke="#555" stroke-width="2"/><text x="1048" y="273" text-anchor="start" font-family="Avenir" font-size="20" font-weight="700" fill="#202020"><tspan x="1048" y="273">03</tspan></text><text x="1048" y="320" text-anchor="start" font-family="Avenir" font-size="31" font-weight="700" fill="#202020"><tspan x="1048" y="320">MÉTODO</tspan></text><text x="1048" y="360" text-anchor="start" font-family="Avenir" font-size="24" font-weight="500" fill="#202020"><tspan x="1048" y="360">Organiza el modo de proceder</tspan><tspan x="1048" y="389">hacia un propósito</tspan></text><circle cx="1367" cy="266" r="8" fill="#CFFF00" stroke="#333" stroke-width="1.5"/><rect x="90" y="478" width="375" height="170" rx="3" fill="#E4E6E5" stroke="#555" stroke-width="2"/><text x="118" y="513" text-anchor="start" font-family="Avenir" font-size="20" font-weight="700" fill="#202020"><tspan x="118" y="513">04</tspan></text><text x="118" y="560" text-anchor="start" font-family="Avenir" font-size="31" font-weight="700" fill="#202020"><tspan x="118" y="560">PRÁCTICA</tspan></text><text x="118" y="600" text-anchor="start" font-family="Avenir" font-size="24" font-weight="500" fill="#202020"><tspan x="118" y="600">Actividad recurrente que</tspan><tspan x="118" y="629">realiza el equipo</tspan></text><circle cx="437" cy="506" r="8" fill="#CFFF00" stroke="#333" stroke-width="1.5"/><rect x="555" y="478" width="375" height="170" rx="3" fill="#FFFFFF" stroke="#555" stroke-width="2"/><text x="583" y="513" text-anchor="start" font-family="Avenir" font-size="20" font-weight="700" fill="#202020"><tspan x="583" y="513">05</tspan></text><text x="583" y="560" text-anchor="start" font-family="Avenir" font-size="31" font-weight="700" fill="#202020"><tspan x="583" y="560">TÉCNICA</tspan></text><text x="583" y="600" text-anchor="start" font-family="Avenir" font-size="24" font-weight="500" fill="#202020"><tspan x="583" y="600">Procedimiento preciso aplicado</tspan><tspan x="583" y="629">dentro de una práctica</tspan></text><circle cx="902" cy="506" r="8" fill="#CFFF00" stroke="#333" stroke-width="1.5"/><rect x="1020" y="478" width="375" height="170" rx="3" fill="#E4E6E5" stroke="#555" stroke-width="2"/><text x="1048" y="513" text-anchor="start" font-family="Avenir" font-size="20" font-weight="700" fill="#202020"><tspan x="1048" y="513">06</tspan></text><text x="1048" y="560" text-anchor="start" font-family="Avenir" font-size="31" font-weight="700" fill="#202020"><tspan x="1048" y="560">HERRAMIENTA</tspan></text><text x="1048" y="600" text-anchor="start" font-family="Avenir" font-size="24" font-weight="500" fill="#202020"><tspan x="1048" y="600">Amplifica una capacidad sin</tspan><tspan x="1048" y="629">sustituir el juicio</tspan></text><circle cx="1367" cy="506" r="8" fill="#CFFF00" stroke="#333" stroke-width="1.5"/></svg>