<svg xmlns="http://www.w3.org/2000/svg" width="1344" height="913" viewBox="0 0 1344 913" role="img" aria-label="Un proceso de punta a punta se define por la promesa y debe seguir instancias completas para hacer visibles trabajo, espera, handoffs, colas, excepciones y reparación."><defs><marker id="arrow" markerWidth="10" markerHeight="10" refX="8" refY="3" orient="auto"><path d="M0,0 L0,6 L9,3 z" fill="#CCCCCC"/></marker><marker id="arrowDark" markerWidth="10" markerHeight="10" refX="8" refY="3" orient="auto"><path d="M0,0 L0,6 L9,3 z" fill="#4D4D4D"/></marker></defs><path d="M121 32 H211 L200 47 H110 Z" fill="#CFFF00"/><rect width="100%" height="100%" fill="#FFFFFF"/><text x="120.0" y="78.0" fill="#272525" font-family="Inter, Arial, sans-serif" font-size="48" font-weight="700" text-anchor="start"><tspan x="120.0" dy="0.0">La tarea visible no es el tiempo del</tspan><tspan x="120.0" dy="56.6">servicio</tspan></text><path d="M 626.0 304.7 L 718.0 304.7" stroke="#CCCCCC" stroke-width="3" fill="none" marker-end="url(#arrow)"/><path d="M 718.0 304.7 H 672.0 V 522.9 H 626.0" stroke="#CCCCCC" stroke-width="3" fill="none" marker-end="url(#arrow)"/><path d="M 626.0 522.9 L 718.0 522.9" stroke="#CCCCCC" stroke-width="3" fill="none" marker-end="url(#arrow)"/><path d="M 718.0 522.9 H 672.0 V 741.1 H 626.0" stroke="#CCCCCC" stroke-width="3" fill="none" marker-end="url(#arrow)"/><path d="M 626.0 741.1 L 718.0 741.1" stroke="#CCCCCC" stroke-width="3" fill="none" marker-end="url(#arrow)"/><rect x="120.0" y="210.6" width="506.0" height="188.2" rx="9" fill="#FFFFFF" stroke="#CCCCCC" stroke-width="2"/><text x="144.0" y="244.6" fill="#4D4D4D" font-family="Inter, Arial, sans-serif" font-size="27" font-weight="700" text-anchor="start"><tspan x="144.0" dy="0.0">01</tspan></text><text x="144.0" y="285.6" fill="#272525" font-family="Inter, Arial, sans-serif" font-size="32" font-weight="700" text-anchor="start"><tspan x="144.0" dy="0.0">Cuatro minutos de atención</tspan><tspan x="144.0" dy="43.2">en mostrador</tspan></text><rect x="718.0" y="210.6" width="506.0" height="188.2" rx="9" fill="#FFFFFF" stroke="#CCCCCC" stroke-width="2"/><text x="742.0" y="244.6" fill="#4D4D4D" font-family="Inter, Arial, sans-serif" font-size="27" font-weight="700" text-anchor="start"><tspan x="742.0" dy="0.0">02</tspan></text><text x="742.0" y="285.6" fill="#272525" font-family="Inter, Arial, sans-serif" font-size="32" font-weight="700" text-anchor="start"><tspan x="742.0" dy="0.0">Llegada como evento inicial</tspan></text><rect x="120.0" y="428.8" width="506.0" height="188.2" rx="9" fill="#FFFFFF" stroke="#CCCCCC" stroke-width="2"/><text x="144.0" y="462.8" fill="#4D4D4D" font-family="Inter, Arial, sans-serif" font-size="27" font-weight="700" text-anchor="start"><tspan x="144.0" dy="0.0">03</tspan></text><text x="144.0" y="503.8" fill="#272525" font-family="Inter, Arial, sans-serif" font-size="32" font-weight="700" text-anchor="start"><tspan x="144.0" dy="0.0">Cola de inspección con edad</tspan><tspan x="144.0" dy="43.2">y responsable</tspan></text><rect x="718.0" y="428.8" width="506.0" height="188.2" rx="9" fill="#FFFFFF" stroke="#CCCCCC" stroke-width="2"/><text x="742.0" y="462.8" fill="#4D4D4D" font-family="Inter, Arial, sans-serif" font-size="27" font-weight="700" text-anchor="start"><tspan x="742.0" dy="0.0">04</tspan></text><text x="742.0" y="503.8" fill="#272525" font-family="Inter, Arial, sans-serif" font-size="32" font-weight="700" text-anchor="start"><tspan x="742.0" dy="0.0">Decisión sobre identidad</tspan><tspan x="742.0" dy="43.2">ordinaria o variante</tspan></text><rect x="120.0" y="647.0" width="506.0" height="188.2" rx="9" fill="#FFFFFF" stroke="#CCCCCC" stroke-width="2"/><text x="144.0" y="681.0" fill="#4D4D4D" font-family="Inter, Arial, sans-serif" font-size="27" font-weight="700" text-anchor="start"><tspan x="144.0" dy="0.0">05</tspan></text><text x="144.0" y="722.0" fill="#272525" font-family="Inter, Arial, sans-serif" font-size="32" font-weight="700" text-anchor="start"><tspan x="144.0" dy="0.0">Asignación y acceso vigentes</tspan></text><rect x="718.0" y="647.0" width="506.0" height="188.2" rx="9" fill="#FFFFFF" stroke="#CCCCCC" stroke-width="2"/><text x="742.0" y="681.0" fill="#4D4D4D" font-family="Inter, Arial, sans-serif" font-size="27" font-weight="700" text-anchor="start"><tspan x="742.0" dy="0.0">06</tspan></text><text x="742.0" y="722.0" fill="#272525" font-family="Inter, Arial, sans-serif" font-size="32" font-weight="700" text-anchor="start"><tspan x="742.0" dy="0.0">Identidad no conciliada como</tspan><tspan x="742.0" dy="43.2">excepción frecuente</tspan></text></svg>
