<svg xmlns="http://www.w3.org/2000/svg" width="1800" height="1100" viewBox="0 0 1800 1100" role="img" aria-labelledby="title desc"><title id="title">El resultado no cierra el aprendizaje</title><desc id="desc">Un resultado favorable sólo se convierte en aprendizaje profesional cuando una sorpresa contrasta teorías rivales, modifica una práctica, una regla, una autoridad o el sistema de aprendizaje y vuelve a una prueba observable. La composición utiliza la topología double_loop para relacionar seis elementos del argumento.</desc><defs><marker id="arrow" viewBox="0 0 12 12" refX="10" refY="6" markerWidth="8" markerHeight="8" orient="auto"><path d="M1 1 L11 6 L1 11 Z" fill="#4D4D4D"/></marker></defs><rect width="1800" height="1100" fill="#F6F4EE"/><rect x="42" y="34" width="1716" height="1024" rx="18" fill="none" stroke="#CCCCCC" stroke-width="2"/><g id="header"><path d="M 82 55 H 222 L 207 76 H 67 Z" fill="#CFFF00"/><text x="250.0" y="74.0" font-family="Inter, Arial, sans-serif" font-size="22" font-weight="800" fill="#272525" text-anchor="start"><tspan x="250.0" dy="0.0">N36 · MAPA CONCEPTUAL</tspan></text><text x="90.0" y="126.0" font-family="Inter, Arial, sans-serif" font-size="54" font-weight="800" fill="#272525" text-anchor="start"><tspan x="90.0" dy="0.0">El resultado no cierra el aprendizaje</tspan></text><text x="90.0" y="208.0" font-family="Inter, Arial, sans-serif" font-size="22" font-weight="500" fill="#4D4D4D" text-anchor="start"><tspan x="90.0" dy="0.0">Un resultado favorable sólo se convierte en aprendizaje profesional cuando una sorpresa contrasta teorías rivales,</tspan><tspan x="90.0" dy="26.8">modifica una práctica, una regla, una autoridad o el sistema de aprendizaje y vuelve a una prueba observable.</tspan></text><path d="M 90 253.0 H 1710" stroke="#CCCCCC" stroke-width="2"/></g><g id="connectors"><path d="M 350 500 H 650" fill="none" stroke="#CCCCCC" stroke-width="3" marker-end="url(#arrow)"/><path d="M 920 500 H 1200" fill="none" stroke="#CCCCCC" stroke-width="3" marker-end="url(#arrow)"/><path d="M 1450 580 C 1510 740,1180 820,920 720" fill="none" stroke="#CCCCCC" stroke-width="3" stroke-dasharray="7 9" marker-end="url(#arrow)"/><path d="M 650 720 C 340 860,180 700,180 580" fill="none" stroke="#CCCCCC" stroke-width="3" stroke-dasharray="7 9" marker-end="url(#arrow)"/><path d="M 920 720 C 900 930,430 930,350 650" fill="none" stroke="#CCCCCC" stroke-width="3" stroke-dasharray="7 9" marker-end="url(#arrow)"/><path d="M 1200 500 C 1100 300,740 280,650 430" fill="none" stroke="#CFFF00" stroke-width="5" marker-end="url(#arrow)"/></g><g id="objects"><g id="n1"><rect x="80.0" y="420.0" width="270.0" height="160.0" rx="8" fill="#E6E6E6" stroke="#4D4D4D" stroke-width="2"/><text x="98.0" y="446.0" font-family="Inter, Arial, sans-serif" font-size="18" font-weight="800" fill="#4D4D4D" text-anchor="start"><tspan x="98.0" dy="0.0">01</tspan></text><text x="102.0" y="475.0" font-family="Inter, Arial, sans-serif" font-size="23" font-weight="700" fill="#272525" text-anchor="start"><tspan x="102.0" dy="0.0">Expectativa</tspan></text><circle cx="340.0" cy="430.0" r="6" fill="#CFFF00" stroke="#4D4D4D" stroke-width="1.5"/></g><g id="n2"><rect x="650.0" y="420.0" width="270.0" height="160.0" rx="8" fill="#FFFFFF" stroke="#4D4D4D" stroke-width="2"/><text x="668.0" y="446.0" font-family="Inter, Arial, sans-serif" font-size="18" font-weight="800" fill="#4D4D4D" text-anchor="start"><tspan x="668.0" dy="0.0">02</tspan></text><text x="672.0" y="475.0" font-family="Inter, Arial, sans-serif" font-size="23" font-weight="700" fill="#272525" text-anchor="start"><tspan x="672.0" dy="0.0">Trabajo manual</tspan><tspan x="672.0" dy="28.1">invisible</tspan></text><circle cx="910.0" cy="430.0" r="6" fill="#CFFF00" stroke="#4D4D4D" stroke-width="1.5"/></g><g id="n3"><rect x="1200.0" y="420.0" width="270.0" height="160.0" rx="8" fill="#E6E6E6" stroke="#4D4D4D" stroke-width="2"/><text x="1218.0" y="446.0" font-family="Inter, Arial, sans-serif" font-size="18" font-weight="800" fill="#4D4D4D" text-anchor="start"><tspan x="1218.0" dy="0.0">03</tspan></text><text x="1222.0" y="475.0" font-family="Inter, Arial, sans-serif" font-size="23" font-weight="700" fill="#272525" text-anchor="start"><tspan x="1222.0" dy="0.0">Teoría declarada</tspan></text><circle cx="1460.0" cy="430.0" r="6" fill="#CFFF00" stroke="#4D4D4D" stroke-width="1.5"/></g><g id="n4"><polygon points="1200.0,690.0 1518.0,690.0 1540.0,712.0 1540.0,850.0 1200.0,850.0" fill="#FFFFFF" stroke="#4D4D4D" stroke-width="2"/><text x="1218.0" y="716.0" font-family="Inter, Arial, sans-serif" font-size="18" font-weight="800" fill="#4D4D4D" text-anchor="start"><tspan x="1218.0" dy="0.0">04</tspan></text><text x="1222.0" y="745.0" font-family="Inter, Arial, sans-serif" font-size="23" font-weight="700" fill="#272525" text-anchor="start"><tspan x="1222.0" dy="0.0">Doble bucle</tspan></text><circle cx="1530.0" cy="700.0" r="6" fill="#CFFF00" stroke="#4D4D4D" stroke-width="1.5"/></g><g id="n5"><rect x="650.0" y="690.0" width="340.0" height="160.0" rx="8" fill="#E6E6E6" stroke="#4D4D4D" stroke-width="2"/><text x="668.0" y="716.0" font-family="Inter, Arial, sans-serif" font-size="18" font-weight="800" fill="#4D4D4D" text-anchor="start"><tspan x="668.0" dy="0.0">05</tspan></text><text x="672.0" y="745.0" font-family="Inter, Arial, sans-serif" font-size="23" font-weight="700" fill="#272525" text-anchor="start"><tspan x="672.0" dy="0.0">Asistencia de IA acotada</tspan></text><circle cx="980.0" cy="700.0" r="6" fill="#CFFF00" stroke="#4D4D4D" stroke-width="1.5"/></g><g id="n6"><rect x="80.0" y="690.0" width="340.0" height="160.0" rx="8" fill="#FFFFFF" stroke="#4D4D4D" stroke-width="2"/><text x="98.0" y="716.0" font-family="Inter, Arial, sans-serif" font-size="18" font-weight="800" fill="#4D4D4D" text-anchor="start"><tspan x="98.0" dy="0.0">06</tspan></text><text x="102.0" y="745.0" font-family="Inter, Arial, sans-serif" font-size="23" font-weight="700" fill="#272525" text-anchor="start"><tspan x="102.0" dy="0.0">Capacidad observable</tspan></text><circle cx="410.0" cy="700.0" r="6" fill="#CFFF00" stroke="#4D4D4D" stroke-width="1.5"/></g><text x="900.0" y="275.0" font-family="Inter, Arial, sans-serif" font-size="20" font-weight="800" fill="#272525" text-anchor="middle"><tspan x="900.0" dy="0.0">REVISAR LA ACCIÓN</tspan></text><text x="900.0" y="940.0" font-family="Inter, Arial, sans-serif" font-size="20" font-weight="800" fill="#272525" text-anchor="middle"><tspan x="900.0" dy="0.0">REVISAR EL MARCO QUE PRODUJO LA ACCIÓN</tspan></text></g><g id="footer"><path d="M 90 1000 H 1710" stroke="#CCCCCC" stroke-width="2"/><text x="90.0" y="1035.0" font-family="Inter, Arial, sans-serif" font-size="18" font-weight="800" fill="#4D4D4D" text-anchor="start"><tspan x="90.0" dy="0.0">METSI · LA FORMA VISUAL RESPONDE AL ARGUMENTO</tspan></text><text x="1710.0" y="1035.0" font-family="Inter, Arial, sans-serif" font-size="18" font-weight="800" fill="#4D4D4D" text-anchor="end"><tspan x="1710.0" dy="0.0">DOUBLE LOOP</tspan></text></g></svg>
