<svg xmlns="http://www.w3.org/2000/svg" viewBox="0 0 1600 900" role="img" aria-labelledby="t d"><title id="t">Anatomía de una hipótesis</title><desc id="d">Anatomía de una hipótesis separa población, intervención, mecanismo, resultado, umbral para impedir que una capa oculte las obligaciones de las demás.</desc><style>.l{font:400 28px Didot,Georgia,serif;fill:#171917}.n{font:700 18px Avenir,Arial,sans-serif;letter-spacing:2px;fill:#535753}.center{text-anchor:middle}.edge{fill:none;stroke:#232523;stroke-width:3;marker-end:url(#a)}.faint{opacity:.55}.hub{font:400 28px Didot,Georgia,serif;fill:#F8F7F3}.hub-small{font:700 16px Avenir,Arial,sans-serif;letter-spacing:3px;fill:#CFFF00}</style><rect width="1600" height="900" fill="#F8F7F3"/><defs><marker id="a" markerWidth="10" markerHeight="10" refX="8" refY="4" orient="auto"><path d="M0,0 L0,8 L9,4 z" fill="#232523"/></marker></defs><path d="M60 96H1540" stroke="#232523" stroke-width="3"/><path d="M60 57h170l-22 25H38z" fill="#CFFF00"/><text x="60" y="165" font-family="Didot,Georgia,serif" font-size="54">Anatomía de una hipótesis</text><path d="M100 270 H1470 L1432 336 H138 Z" fill="#F8F7F3" stroke="#232523" stroke-width="2"/><text x="128" y="312" class="n">01</text><text class="l"><tspan x="215.0" y="313.0">Población</tspan></text><path d="M148 362 H1422 L1384 428 H186 Z" fill="#E3E6E4" stroke="#232523" stroke-width="2"/><text x="176" y="404" class="n">02</text><text class="l"><tspan x="263.0" y="405.0">Intervención</tspan></text><path d="M196 454 H1374 L1336 520 H234 Z" fill="#F8F7F3" stroke="#232523" stroke-width="2"/><text x="224" y="496" class="n">03</text><text class="l"><tspan x="311.0" y="497.0">Mecanismo</tspan></text><path d="M244 546 H1326 L1288 612 H282 Z" fill="#E3E6E4" stroke="#232523" stroke-width="2"/><text x="272" y="588" class="n">04</text><text class="l"><tspan x="359.0" y="589.0">Resultado</tspan></text><path d="M292 638 H1278 L1240 704 H330 Z" fill="#F8F7F3" stroke="#232523" stroke-width="2"/><text x="320" y="680" class="n">05</text><text class="l"><tspan x="407.0" y="681.0">Umbral</tspan></text><path d="M60 832H1540" stroke="#8F948F" stroke-width="2"/><text x="60" y="873" font-family="Avenir,Arial,sans-serif" font-size="20" fill="#555">METSI · N22 · LAYERS · MAPA 01</text></svg>